<svg id="Agrupar_1" data-name="Agrupar 1" xmlns="http://www.w3.org/2000/svg" width="500" height="500" viewBox="0 0 500 500">
  <defs>
    <style>
      .cls-1 {
        fill: #2f9e41;
        fill-rule: evenodd;
      }
    </style>
  </defs>
  <path id="Forma_1_copiar_2" data-name="Forma 1 copiar 2" class="cls-1" d="M392,148c39.127,25.13,100.936,36.484,103.117,95.359,3.645,98.416-99.778,95.891-125.695,125.695S334.435,498.637,250.206,498.637,150.428,401.45,127.1,372.942,2.022,335.334,4,255.022C6.435,156.16,110.839,169.377,132.287,125.44c20.8-42.6,51.863-122.054,114.032-124.4C291.591-.668,318.83,39.3,342.555,77.118,343.9,79.264,349.911,86.295,349,91s-6.3,5-9,5H221s-12.857-2.562-20,8c-8.063,11.923-10.523,37.135-10.523,37.135L154,336s-2.5,9.445,0,14c2.957,5.377,11,6,11,6h38s7.978-1.174,12-6c3.431-4.117,3-12,3-12l13-68s0.761-5.3,4-8c2.715-2.262,8-2,8-2h70s6.725,0.039,10-5c3.224-4.96,3-15,3-15l1-18s-0.147-6.147-3-9c-2.638-2.638-8-2-8-2H249s-4.906.617-7-2c-1.9-2.37-1-8-1-8l6-45a13.462,13.462,0,0,1,4-7c2.816-2.347,8-3,8-3l86,1a25.513,25.513,0,0,0,13-4c6.531-4.441,5.718-11.975,12-11C375.017,132.779,383.641,142.631,392,148Z"/>
  <path id="Forma_2_copiar_2" data-name="Forma 2 copiar 2" class="cls-1" d="M423.887,429.675c21.127-24.145,31.1-44.058,24.621-60.9s-54.776,15.375-60.9,23.325-32.395,51.833-22.029,60.9S405.746,450.408,423.887,429.675Z"/>
  <path id="Forma_2_copiar_4" data-name="Forma 2 copiar 4" class="cls-1" d="M75.769,429.675c-21.127-24.145-31.1-44.058-24.621-60.9s54.776,15.375,60.9,23.325,32.4,51.833,22.029,60.9S93.911,450.408,75.769,429.675Z"/>
  <path id="Forma_2_copiar_5" data-name="Forma 2 copiar 5" class="cls-1" d="M75.769,76.419c-21.127,24.145-31.1,44.058-24.621,60.9s54.776-15.375,60.9-23.325,32.4-51.833,22.029-60.9S93.911,55.686,75.769,76.419Z"/>
  <path id="Forma_2_copiar_6" data-name="Forma 2 copiar 6" class="cls-1" d="M423.887,76.419c21.127,24.145,31.1,44.058,24.621,60.9S393.732,121.948,387.6,114s-32.395-51.833-22.029-60.9S405.746,55.686,423.887,76.419Z"/>
</svg>
